<?xml version="1.0" encoding="UTF-8"?>
<!-- Generated by Pixelmator Pro 2.4.7 -->
<svg width="329" height="870" viewBox="0 0 329 870" xmlns="http://www.w3.org/2000/svg" xmlns:xlink="http://www.w3.org/1999/xlink">
    <g id="g1">
        <path id="line-1" fill="none" stroke="#ececec" stroke-linecap="round" d="M 279.972778 131.646973 C 279.972778 131.646973 239.233276 265.210449 216.550781 314.893066 C 193.868164 364.576172 162.815552 402.402344 108.925293 443.529297 C 55.035156 484.656738 29.619507 578.160156 119.495728 691.094238 C 209.371948 804.02832 275.780273 836.416992 291.504028 847.641602"/>
        <path id="line-2" fill="none" stroke="#ececec" stroke-linecap="round" d="M 282.855469 3.010254 C 282.855469 3.010254 255.372803 1.984375 221.355469 129.220215 C 187.338135 256.455078 170.941528 291.760742 145.441162 337.951172 C 119.940674 384.140137 92.654785 412.998047 56.073486 438.675293 C 19.492554 464.352539 -40.665771 539.35498 48.386108 670.463379 C 137.43811 801.572266 298.330444 900.879395 325.136841 856.136719"/>
        <filter id="filter1" x="0" y="0" width="329" height="870" filterUnits="userSpaceOnUse" primitiveUnits="userSpaceOnUse" color-interpolation-filters="sRGB">
            <feGaussianBlur stdDeviation="5"/>
            <feOffset dx="-0" dy="3" result="offsetblur"/>
            <feFlood flood-color="#fe3e57" flood-opacity="0.4"/>
            <feComposite in2="offsetblur" operator="in"/>
            <feMerge>
                <feMergeNode/>
                <feMergeNode in="SourceGraphic"/>
            </feMerge>
        </filter>
        <path id="Ellipse-1" fill="none" stroke="#fe3e57" stroke-width="2" stroke-linecap="round" filter="url(#filter1)" d="M 150.265625 559.453125 L 153.21875 560.46875 L 156 562.109375 L 158.421875 564.28125 L 160.390625 566.84375 L 161.828125 569.71875 L 162.734375 573 L 162.984375 576 L 162.734375 578.984375 L 161.828125 582.265625 L 160.390625 585.140625 L 158.421875 587.703125 L 156 589.875 L 153.21875 591.515625 L 150.265625 592.53125 L 146.46875 592.96875 L 142.6875 592.53125 L 139.734375 591.515625 L 136.9375 589.875 L 134.53125 587.703125 L 132.5625 585.140625 L 131.125 582.265625 L 130.21875 578.984375 L 129.96875 576 L 130.21875 573 L 131.125 569.71875 L 132.5625 566.84375 L 134.53125 564.28125 L 136.9375 562.109375 L 139.734375 560.46875 L 142.6875 559.453125 L 146.46875 559.015625 Z"/>
        <filter id="filter2" x="0" y="0" width="329" height="870" filterUnits="userSpaceOnUse" primitiveUnits="userSpaceOnUse" color-interpolation-filters="sRGB">
            <feGaussianBlur stdDeviation="5"/>
            <feOffset dx="-0" dy="3" result="offsetblur"/>
            <feFlood flood-color="#34c3ff" flood-opacity="0.4"/>
            <feComposite in2="offsetblur" operator="in"/>
            <feMerge>
                <feMergeNode/>
                <feMergeNode in="SourceGraphic"/>
            </feMerge>
        </filter>
        <path id="Ellipse-2" fill="none" stroke="#34c3ff" stroke-width="2" stroke-linecap="round" filter="url(#filter2)" d="M 109 229.28125 L 110.484375 230.1875 L 111.5 231.53125 L 111.9375 233.5 L 111.5 235.453125 L 110.484375 236.796875 L 108.984375 237.703125 L 107.46875 237.984375 L 105.9375 237.703125 L 104.4375 236.796875 L 103.421875 235.453125 L 102.984375 233.5 L 103.421875 231.53125 L 104.4375 230.1875 L 105.921875 229.28125 L 107.46875 229.015625 Z"/>
        <filter id="filter3" x="0" y="0" width="329" height="870" filterUnits="userSpaceOnUse" primitiveUnits="userSpaceOnUse" color-interpolation-filters="sRGB">
            <feGaussianBlur stdDeviation="5"/>
            <feOffset dx="-0" dy="3" result="offsetblur"/>
            <feFlood flood-color="#34c3ff" flood-opacity="0.4"/>
            <feComposite in2="offsetblur" operator="in"/>
            <feMerge>
                <feMergeNode/>
                <feMergeNode in="SourceGraphic"/>
            </feMerge>
        </filter>
        <path id="Shape-3" fill="#34c3ff" fill-rule="evenodd" stroke="none" filter="url(#filter3)" d="M 198.920288 701.527344 L 195.125122 697.570313 C 194.662476 697.087891 194.662476 696.305664 195.125122 695.823242 C 195.587646 695.34082 196.337891 695.34082 196.800537 695.823242 L 200.595703 699.780273 L 204.390869 695.823242 C 204.853516 695.34082 205.603516 695.34082 206.066284 695.823242 L 206.066284 695.823242 C 206.528931 696.305664 206.528931 697.087891 206.066284 697.570313 L 202.271118 701.527344 L 206.066284 705.485352 C 206.528931 705.967773 206.528931 706.749512 206.066284 707.231934 L 206.066284 707.231934 C 205.603516 707.714355 204.853516 707.714355 204.390869 707.231934 L 200.595703 703.274414 L 196.800537 707.231934 C 196.337891 707.714355 195.587646 707.714355 195.125122 707.231934 L 195.125122 707.231934 C 194.662476 706.749512 194.662476 705.967773 195.125122 705.485352 Z"/>
        <filter id="filter4" x="0" y="0" width="329" height="870" filterUnits="userSpaceOnUse" primitiveUnits="userSpaceOnUse" color-interpolation-filters="sRGB">
            <feGaussianBlur stdDeviation="5"/>
            <feOffset dx="-0" dy="3" result="offsetblur"/>
            <feFlood flood-color="#5800e4" flood-opacity="0.4"/>
            <feComposite in2="offsetblur" operator="in"/>
            <feMerge>
                <feMergeNode/>
                <feMergeNode in="SourceGraphic"/>
            </feMerge>
        </filter>
        <path id="Rectangle-519" fill="#5800e4" fill-rule="evenodd" stroke="none" filter="url(#filter4)" d="M 205.988403 447.342773 L 211.645752 453 L 205.988403 458.65625 L 200.331055 453 Z"/>
        <filter id="filter5" x="0" y="0" width="329" height="870" filterUnits="userSpaceOnUse" primitiveUnits="userSpaceOnUse" color-interpolation-filters="sRGB">
            <feGaussianBlur stdDeviation="5"/>
            <feOffset dx="-0" dy="3" result="offsetblur"/>
            <feFlood flood-color="#ffb534" flood-opacity="0.4"/>
            <feComposite in2="offsetblur" operator="in"/>
            <feMerge>
                <feMergeNode/>
                <feMergeNode in="SourceGraphic"/>
            </feMerge>
        </filter>
        <path id="Shape-3-copy-2" fill="#ffb534" fill-rule="evenodd" stroke="none" filter="url(#filter5)" d="M 34.275146 370.194336 L 30.47998 366.236816 C 30.017334 365.753906 30.017334 364.972168 30.47998 364.489746 C 30.942627 364.007813 31.692749 364.007813 32.155396 364.489746 L 35.950562 368.447266 L 39.745728 364.489746 C 40.208374 364.007813 40.958496 364.007813 41.421143 364.489746 L 41.421143 364.489746 C 41.883789 364.972168 41.883789 365.753906 41.421143 366.236816 L 37.625854 370.194336 L 41.421143 374.151367 C 41.883789 374.633789 41.883789 375.416016 41.421143 375.898438 L 41.421143 375.898438 C 40.958496 376.380371 40.208374 376.380371 39.745728 375.898438 L 35.950562 371.940918 L 32.155396 375.898438 C 31.692749 376.380371 30.942627 376.380371 30.47998 375.898438 L 30.47998 375.898438 C 30.017334 375.416016 30.017334 374.633789 30.47998 374.151367 Z"/>
        <filter id="filter6" x="0" y="0" width="329" height="870" filterUnits="userSpaceOnUse" primitiveUnits="userSpaceOnUse" color-interpolation-filters="sRGB">
            <feGaussianBlur stdDeviation="5"/>
            <feOffset dx="-0" dy="3" result="offsetblur"/>
            <feFlood flood-color="#fe3e57" flood-opacity="0.4"/>
            <feComposite in2="offsetblur" operator="in"/>
            <feMerge>
                <feMergeNode/>
                <feMergeNode in="SourceGraphic"/>
            </feMerge>
        </filter>
        <path id="Shape-3-copy-3" fill="#fe3e57" fill-rule="evenodd" stroke="none" filter="url(#filter6)" d="M 174.566406 82.549316 L 170.771118 78.591797 C 170.308472 78.109375 170.308472 77.327148 170.771118 76.844727 C 171.233887 76.361816 171.983887 76.361816 172.446533 76.844727 L 176.241821 80.802734 L 180.036987 76.844727 C 180.499512 76.361816 181.249756 76.361816 181.71228 76.844727 L 181.712402 76.844727 C 182.174927 77.327148 182.174927 78.109375 181.712402 78.591797 L 177.917236 82.549316 L 181.712402 86.506348 C 182.174927 86.98877 182.174927 87.771484 181.712402 88.253906 L 181.71228 88.253906 C 181.249756 88.736328 180.499512 88.736328 180.036987 88.253906 L 176.241821 84.296875 L 172.446533 88.253906 C 171.983887 88.736328 171.233887 88.736328 170.771118 88.253906 L 170.771118 88.253906 C 170.308472 87.771484 170.308472 86.98877 170.771118 86.506348 Z"/>
    </g>
</svg>
