<?xml version="1.0" encoding="UTF-8"?>
<!-- Generated by Pixelmator Pro 2.4.7 -->
<svg width="254" height="670" viewBox="0 0 254 670" xmlns="http://www.w3.org/2000/svg" xmlns:xlink="http://www.w3.org/1999/xlink">
    <g id="g1">
        <path id="line-1-copy" fill="none" stroke="#ececec" stroke-linecap="round" d="M 36.801544 568.803223 C 36.801544 568.803223 68.084885 465.999023 85.502563 427.758301 C 102.920128 389.517578 126.765038 360.401855 168.146637 328.746094 C 209.528137 297.09082 229.044556 225.120605 160.029816 138.194824 C 91.014954 51.269531 40.020882 26.339844 27.946907 17.699707"/>
        <path id="line-2-copy" fill="none" stroke="#ececec" stroke-linecap="round" d="M 34.587914 667.814941 C 34.587914 667.814941 55.69162 668.604492 81.812988 570.671387 C 107.934471 472.737793 120.525146 445.562988 140.106674 410.010254 C 159.688095 374.458496 180.640625 352.246582 208.730835 332.482422 C 236.820923 312.71875 283.015686 254.989258 214.633911 154.074707 C 146.252045 53.159668 22.705055 -23.277344 2.120682 11.161133"/>
        <filter id="filter1" x="0" y="0" width="254" height="670" filterUnits="userSpaceOnUse" primitiveUnits="userSpaceOnUse" color-interpolation-filters="sRGB">
            <feGaussianBlur stdDeviation="5"/>
            <feOffset dx="-0" dy="3" result="offsetblur"/>
            <feFlood flood-color="#fe3e57" flood-opacity="0.4"/>
            <feComposite in2="offsetblur" operator="in"/>
            <feMerge>
                <feMergeNode/>
                <feMergeNode in="SourceGraphic"/>
            </feMerge>
        </filter>
        <path id="Ellipse-1-copy" fill="none" stroke="#fe3e57" stroke-width="2" stroke-linecap="round" filter="url(#filter1)" d="M 142.453125 214.34375 L 144.75 215.21875 L 146.71875 216.4375 L 148.515625 218.140625 L 149.984375 220.140625 L 151 222.3125 L 151.75 226.78125 L 151.359375 230.0625 L 150.546875 232.359375 L 149.3125 234.46875 L 147.71875 236.28125 L 145.71875 237.796875 L 143.65625 238.8125 L 139.265625 239.625 L 136.25 239.21875 L 133.890625 238.328125 L 131.921875 237.109375 L 130.125 235.40625 L 128.65625 233.40625 L 127.640625 231.234375 L 126.875 226.78125 L 127.640625 222.3125 L 128.65625 220.140625 L 130.125 218.140625 L 131.921875 216.4375 L 133.890625 215.21875 L 136.1875 214.34375 L 139.3125 213.953125 Z"/>
        <filter id="filter2" x="0" y="0" width="254" height="670" filterUnits="userSpaceOnUse" primitiveUnits="userSpaceOnUse" color-interpolation-filters="sRGB">
            <feGaussianBlur stdDeviation="5"/>
            <feOffset dx="-0" dy="3" result="offsetblur"/>
            <feFlood flood-color="#34c3ff" flood-opacity="0.4"/>
            <feComposite in2="offsetblur" operator="in"/>
            <feMerge>
                <feMergeNode/>
                <feMergeNode in="SourceGraphic"/>
            </feMerge>
        </filter>
        <path id="Ellipse-2-copy" fill="none" stroke="#34c3ff" stroke-width="2" stroke-linecap="round" filter="url(#filter2)" d="M 169.359375 471.390625 L 170.4375 472.046875 L 171.125 472.96875 L 171.453125 474.453125 L 171.15625 475.828125 L 170.4375 476.78125 L 169.359375 477.4375 L 168.265625 477.640625 L 167.1875 477.4375 L 166.109375 476.78125 L 165.390625 475.828125 L 165.0625 474.421875 L 165.390625 473 L 166.109375 472.046875 L 167.1875 471.390625 L 168.265625 471.203125 Z"/>
        <filter id="filter3" x="0" y="0" width="254" height="670" filterUnits="userSpaceOnUse" primitiveUnits="userSpaceOnUse" color-interpolation-filters="sRGB">
            <feGaussianBlur stdDeviation="5"/>
            <feOffset dx="-0" dy="3" result="offsetblur"/>
            <feFlood flood-color="#34c3ff" flood-opacity="0.4"/>
            <feComposite in2="offsetblur" operator="in"/>
            <feMerge>
                <feMergeNode/>
                <feMergeNode in="SourceGraphic"/>
            </feMerge>
        </filter>
        <path id="Shape-3-copy" fill="#34c3ff" fill-rule="evenodd" stroke="none" filter="url(#filter3)" d="M 99.040695 130.164063 L 101.954933 133.210449 C 102.310158 133.581543 102.310158 134.184082 101.954933 134.554688 C 101.599709 134.926758 101.023613 134.926758 100.668388 134.554688 L 97.75415 131.509277 L 94.839912 134.554688 C 94.484688 134.926758 93.908707 134.926758 93.553368 134.554688 L 93.553368 134.554688 C 93.198143 134.184082 93.198143 133.581543 93.553368 133.210449 L 96.467606 130.164063 L 93.553368 127.118164 C 93.198143 126.74707 93.198143 126.14502 93.553368 125.773438 L 93.553368 125.773438 C 93.908707 125.402344 94.484688 125.402344 94.839912 125.773438 L 97.75415 128.819824 L 100.668388 125.773438 C 101.023613 125.402344 101.599709 125.402344 101.954933 125.773438 L 101.954933 125.773438 C 102.310158 126.14502 102.310158 126.74707 101.954933 127.118164 Z"/>
        <filter id="filter4" x="0" y="0" width="254" height="670" filterUnits="userSpaceOnUse" primitiveUnits="userSpaceOnUse" color-interpolation-filters="sRGB">
            <feGaussianBlur stdDeviation="5"/>
            <feOffset dx="-0" dy="3" result="offsetblur"/>
            <feFlood flood-color="#5800e4" flood-opacity="0.4"/>
            <feComposite in2="offsetblur" operator="in"/>
            <feMerge>
                <feMergeNode/>
                <feMergeNode in="SourceGraphic"/>
            </feMerge>
        </filter>
        <path id="Rectangle-519-copy" fill="#5800e4" fill-rule="evenodd" stroke="none" filter="url(#filter4)" d="M 93.61322 325.811523 L 89.268929 321.457031 L 93.61322 317.103027 L 97.957397 321.457031 Z"/>
        <filter id="filter5" x="0" y="0" width="254" height="670" filterUnits="userSpaceOnUse" primitiveUnits="userSpaceOnUse" color-interpolation-filters="sRGB">
            <feGaussianBlur stdDeviation="5"/>
            <feOffset dx="-0" dy="3" result="offsetblur"/>
            <feFlood flood-color="#ffb534" flood-opacity="0.4"/>
            <feComposite in2="offsetblur" operator="in"/>
            <feMerge>
                <feMergeNode/>
                <feMergeNode in="SourceGraphic"/>
            </feMerge>
        </filter>
        <path id="Shape-3-copy-4" fill="#ffb534" fill-rule="evenodd" stroke="none" filter="url(#filter5)" d="M 223.472992 369.203125 L 226.387344 372.249023 C 226.742569 372.621094 226.742569 373.222656 226.387344 373.59375 C 226.032013 373.965332 225.456024 373.965332 225.1008 373.59375 L 222.186554 370.547852 L 219.272217 373.59375 C 218.916992 373.965332 218.341003 373.965332 217.985779 373.59375 L 217.985779 373.59375 C 217.630554 373.222656 217.630554 372.621094 217.985779 372.249023 L 220.900024 369.203125 L 217.985779 366.157227 C 217.630554 365.786133 217.630554 365.184082 217.985779 364.8125 L 217.985779 364.8125 C 218.341003 364.441406 218.916992 364.441406 219.272217 364.8125 L 222.186554 367.858887 L 225.1008 364.8125 C 225.456024 364.441406 226.032013 364.441406 226.387344 364.8125 L 226.387344 364.8125 C 226.742569 365.184082 226.742569 365.786133 226.387344 366.157227 Z"/>
        <filter id="filter6" x="0" y="0" width="254" height="670" filterUnits="userSpaceOnUse" primitiveUnits="userSpaceOnUse" color-interpolation-filters="sRGB">
            <feGaussianBlur stdDeviation="5"/>
            <feOffset dx="-0" dy="3" result="offsetblur"/>
            <feFlood flood-color="#ffb534" flood-opacity="0.4"/>
            <feComposite in2="offsetblur" operator="in"/>
            <feMerge>
                <feMergeNode/>
                <feMergeNode in="SourceGraphic"/>
            </feMerge>
        </filter>
        <path id="Shape-3-copy-5" fill="#ffb534" fill-rule="evenodd" stroke="none" filter="url(#filter6)" d="M 228.464325 81.39209 L 231.378571 84.437988 C 231.733795 84.80957 231.733795 85.411133 231.378571 85.782715 C 231.023224 86.153809 230.44725 86.153809 230.092026 85.782715 L 227.177795 82.736816 L 224.26355 85.782715 C 223.908325 86.153809 223.33223 86.153809 222.977005 85.782715 L 222.977005 85.782715 C 222.62178 85.411133 222.62178 84.80957 222.977005 84.437988 L 225.891235 81.39209 L 222.977005 78.34668 C 222.62178 77.974609 222.62178 77.372559 222.977005 77.001953 L 222.977005 77.001953 C 223.33223 76.629883 223.908325 76.629883 224.26355 77.001953 L 227.177795 80.047852 L 230.092026 77.001953 C 230.44725 76.629883 231.023224 76.629883 231.378571 77.001953 L 231.378571 77.001953 C 231.733795 77.372559 231.733795 77.974609 231.378571 78.34668 Z"/>
        <filter id="filter7" x="0" y="0" width="254" height="670" filterUnits="userSpaceOnUse" primitiveUnits="userSpaceOnUse" color-interpolation-filters="sRGB">
            <feGaussianBlur stdDeviation="5"/>
            <feOffset dx="-0" dy="3" result="offsetblur"/>
            <feFlood flood-color="#fe3e57" flood-opacity="0.4"/>
            <feComposite in2="offsetblur" operator="in"/>
            <feMerge>
                <feMergeNode/>
                <feMergeNode in="SourceGraphic"/>
            </feMerge>
        </filter>
        <path id="path1" fill="#fe3e57" fill-rule="evenodd" stroke="none" filter="url(#filter7)" d="M 117.741714 606.59375 L 120.656067 609.640137 C 121.011292 610.01123 121.011292 610.613281 120.656067 610.984863 C 120.300842 611.356445 119.724861 611.356445 119.369522 610.984863 L 116.45517 607.938477 L 113.540932 610.984863 C 113.185707 611.356445 112.609726 611.356445 112.254501 610.984863 L 112.254387 610.984863 C 111.899162 610.613281 111.899162 610.01123 112.254387 609.640137 L 115.168739 606.59375 L 112.254387 603.547852 C 111.899162 603.177246 111.899162 602.574707 112.254387 602.203125 L 112.254501 602.203125 C 112.609726 601.832031 113.185707 601.832031 113.540932 602.203125 L 116.45517 605.249023 L 119.369522 602.203125 C 119.724861 601.832031 120.300842 601.832031 120.656067 602.203125 L 120.656067 602.203125 C 121.011292 602.574707 121.011292 603.177246 120.656067 603.547852 Z"/>
    </g>
</svg>
