<?xml version="1.0" encoding="UTF-8"?>
<!-- Generated by Pixelmator Pro 2.4.7 -->
<svg width="10" height="9" viewBox="0 0 10 9" xmlns="http://www.w3.org/2000/svg" xmlns:xlink="http://www.w3.org/1999/xlink">
    <path id="arrow" fill="#8d8d8d" fill-rule="evenodd" stroke="none" d="M 9.836334 4.624512 L 6.22699 1.151367 C 6.123993 1.052246 5.986664 0.99707 5.840179 0.99707 C 5.693573 0.99707 5.556366 1.052246 5.453369 1.151367 L 5.12561 1.466797 C 5.022705 1.56543 4.965942 1.698242 4.965942 1.838867 C 4.965942 1.980469 5.022705 2.117188 5.12561 2.21582 L 7.231323 4.246582 L 0.541565 4.246582 C 0.239899 4.246582 0.001617 4.473145 0.001617 4.763184 L 0.001617 5.209473 C 0.001617 5.499512 0.239899 5.75 0.541565 5.75 L 7.255127 5.75 L 5.125732 7.791992 C 5.022705 7.890625 4.966064 8.019531 4.966064 8.160645 C 4.966064 8.300781 5.022705 8.431641 5.125732 8.530762 L 5.453491 8.845215 C 5.556458 8.944336 5.693695 8.998535 5.840271 8.998535 C 5.986664 8.998535 6.123993 8.943359 6.22699 8.844238 L 9.836334 5.371582 C 9.939667 5.272461 9.996429 5.139648 9.996094 4.998047 C 9.996429 4.856934 9.939667 4.724121 9.836334 4.624512"/>
</svg>
