<?xml version="1.0" encoding="UTF-8"?>
<!-- Generated by Pixelmator Pro 3.2.2 -->
<svg width="16" height="16" viewBox="0 0 16 16" xmlns="http://www.w3.org/2000/svg" xmlns:xlink="http://www.w3.org/1999/xlink">
    <path id="User" fill="#fe3e57" fill-rule="evenodd" stroke="none" d="M 13.656738 10.342773 C 12.7854 9.47168 11.748352 8.82666 10.61676 8.436035 C 11.828674 7.601074 12.624939 6.204346 12.624939 4.624512 C 12.624939 2.074219 10.550171 -0.000244 7.999939 -0.000244 C 5.449768 -0.000244 3.374939 2.074219 3.374939 4.624512 C 3.374939 6.204346 4.171082 7.601074 5.383118 8.436035 C 4.251526 8.82666 3.214355 9.47168 2.343018 10.342773 C 0.832031 11.854004 -6.1e-05 13.862793 -6.1e-05 15.999512 L 1.249878 15.999512 C 1.249878 12.277832 4.277954 9.249512 7.999939 9.249512 C 11.721924 9.249512 14.749878 12.277832 14.749878 15.999512 L 15.999939 15.999512 C 15.999939 13.862793 15.167847 11.854004 13.656738 10.342773 Z M 4.625 4.624512 C 4.625 2.763672 6.138916 1.249512 7.999939 1.249512 C 9.86084 1.249512 11.374939 2.763672 11.374939 4.624512 C 11.374939 6.485596 9.86084 7.999512 7.999939 7.999512 C 6.138916 7.999512 4.625 6.485596 4.625 4.624512 Z"/>
</svg>
