<?xml version="1.0" encoding="UTF-8"?>
<!-- Generated by Pixelmator Pro 3.2.2 -->
<svg width="16" height="16" viewBox="0 0 16 16" xmlns="http://www.w3.org/2000/svg" xmlns:xlink="http://www.w3.org/1999/xlink">
    <path id="Shape-1" fill="#fe3e57" fill-rule="evenodd" stroke="none" d="M 1.875 16 C 0.841201 16 0 15.158921 0 14.125 L 0 3.125 C 0 2.091322 0.841201 1.25 1.875 1.25 L 2.625 1.25 L 2.625 0 L 3.875 0 L 3.875 1.25 L 12.125 1.25 L 12.125 0 L 13.375 0 L 13.375 1.25 L 14.125 1.25 C 15.158922 1.25 16 2.091322 16 3.125 L 16 14.125 C 16 15.158921 15.158922 16 14.125 16 L 1.875 16 Z M 1.875 14.75 L 14.125 14.75 C 14.469727 14.75 14.75 14.469478 14.75 14.125 L 14.75 5.875 L 1.25 5.875 L 1.25 14.125 C 1.25 14.469478 1.530401 14.75 1.875 14.75 Z M 2.375 13.4375 L 2.375 12.1875 L 3.625 12.1875 L 3.625 13.4375 L 2.375 13.4375 Z M 4.875 13.4375 L 4.875 12.1875 L 6.125 12.1875 L 6.125 13.4375 L 4.875 13.4375 Z M 7.375 13.4375 L 7.375 12.1875 L 8.625 12.1875 L 8.625 13.4375 L 7.375 13.4375 Z M 9.875 13.4375 L 9.875 12.1875 L 11.125 12.1875 L 11.125 13.4375 L 9.875 13.4375 Z M 2.375 10.9375 L 2.375 9.6875 L 3.625 9.6875 L 3.625 10.9375 L 2.375 10.9375 Z M 4.875 10.9375 L 4.875 9.6875 L 6.125 9.6875 L 6.125 10.9375 L 4.875 10.9375 Z M 7.375 10.9375 L 7.375 9.6875 L 8.625 9.6875 L 8.625 10.9375 L 7.375 10.9375 Z M 9.875 10.9375 L 9.875 9.6875 L 11.125 9.6875 L 11.125 10.9375 L 9.875 10.9375 Z M 12.375 10.9375 L 12.375 9.6875 L 13.625 9.6875 L 13.625 10.9375 L 12.375 10.9375 Z M 2.375 8.4375 L 2.375 7.1875 L 3.625 7.1875 L 3.625 8.4375 L 2.375 8.4375 Z M 4.875 8.4375 L 4.875 7.1875 L 6.125 7.1875 L 6.125 8.4375 L 4.875 8.4375 Z M 7.375 8.4375 L 7.375 7.1875 L 8.625 7.1875 L 8.625 8.4375 L 7.375 8.4375 Z M 9.875 8.4375 L 9.875 7.1875 L 11.125 7.1875 L 11.125 8.4375 L 9.875 8.4375 Z M 12.375 8.4375 L 12.375 7.1875 L 13.625 7.1875 L 13.625 8.4375 L 12.375 8.4375 Z M 1.25 4.625 L 14.75 4.625 L 14.75 3.125 C 14.75 2.780273 14.469727 2.5 14.125 2.5 L 13.375 2.5 L 13.375 3.75 L 12.125 3.75 L 12.125 2.5 L 3.875 2.5 L 3.875 3.75 L 2.625 3.75 L 2.625 2.5 L 1.875 2.5 C 1.530401 2.5 1.25 2.780273 1.25 3.125 L 1.25 4.625 Z"/>
</svg>
