<?xml version="1.0" encoding="UTF-8"?>
<!-- Generated by Pixelmator Pro 2.4.7 -->
<svg width="23" height="21" viewBox="0 0 23 21" xmlns="http://www.w3.org/2000/svg" xmlns:xlink="http://www.w3.org/1999/xlink">
    <path id="carticon" fill="#29282d" fill-rule="evenodd" stroke="none" d="M 7.476563 20.996094 C 5.963747 20.996094 4.732422 19.776365 4.732422 18.273438 C 4.732422 16.770998 5.963747 15.548828 7.476563 15.548828 C 8.989378 15.548828 10.220703 16.770998 10.220703 18.273438 C 10.220703 19.776365 8.989378 20.996094 7.476563 20.996094 Z M 17.435547 20.996094 C 15.922853 20.996094 14.691406 19.776365 14.691406 18.273438 C 14.691406 16.770998 15.922853 15.548828 17.435547 15.548828 C 18.948484 15.548828 20.179688 16.770998 20.179688 18.273438 C 20.179688 19.776365 18.948484 20.996094 17.435547 20.996094 Z M 7.476563 19.363281 C 8.081786 19.363281 8.574219 18.874023 8.574219 18.273438 C 8.574219 17.672363 8.081786 17.183594 7.476563 17.183594 C 6.871338 17.183594 6.378906 17.672363 6.378906 18.273438 C 6.378906 18.874023 6.871338 19.363281 7.476563 19.363281 Z M 17.435547 19.363281 C 18.040894 19.363281 18.533203 18.874023 18.533203 18.273438 C 18.533203 17.672363 18.040894 17.183594 17.435547 17.183594 C 16.830444 17.183594 16.337891 17.672363 16.337891 18.273438 C 16.337891 18.874023 16.830444 19.363281 17.435547 19.363281 Z M 6.378906 14.376953 C 5.998047 14.376953 5.66687 14.118164 5.578125 13.75 L 2.902344 2.632813 L 0.835938 2.632813 C 0.381226 2.632813 0.013672 2.268066 0.013672 1.816406 C 0.013672 1.364746 0.381226 1 0.835938 1 L 3.552734 1 C 3.933593 1 4.264893 1.259766 4.353516 1.626953 L 5.09375 4.705078 L 21.195313 4.705078 C 21.448364 4.705078 21.685913 4.819824 21.841797 5.017578 C 21.997559 5.216309 22.05481 5.474609 21.994141 5.71875 L 19.990234 13.755859 C 19.899414 14.119629 19.569702 14.376953 19.191406 14.376953 L 6.378906 14.376953 Z M 7.029297 12.742188 L 18.546875 12.742188 L 20.142578 6.339844 L 5.488281 6.339844 L 7.029297 12.742188 Z"/>
</svg>
