<?xml version="1.0" encoding="UTF-8"?>
<!-- Generated by Pixelmator Pro 3.2.2 -->
<svg width="21" height="21" viewBox="0 0 21 21" xmlns="http://www.w3.org/2000/svg" xmlns:xlink="http://www.w3.org/1999/xlink">
    <path id="checkmark" fill="#fe3e57" fill-rule="evenodd" stroke="none" d="M 11 20.550781 C 8.32883 20.550781 5.818419 19.509764 3.929688 17.621094 C 2.040956 15.731936 1 13.221677 1 10.550781 C 1 7.879886 2.040956 5.36743 3.929688 3.478516 C 5.818419 1.59009 8.32883 0.550781 11 0.550781 C 13.671048 0.550781 16.181581 1.59009 18.070313 3.478516 C 19.959044 5.36743 21 7.879886 21 10.550781 C 21 13.221677 19.959044 15.731936 18.070313 17.621094 C 16.181581 19.509764 13.671048 20.550781 11 20.550781 Z M 11 19.378906 C 15.867732 19.378906 19.828125 15.418452 19.828125 10.550781 C 19.828125 5.68311 15.867732 1.722656 11 1.722656 C 6.132146 1.722656 2.171875 5.68311 2.171875 10.550781 C 2.171875 15.418452 6.132146 19.378906 11 19.378906 Z M 9.775391 13.929688 C 9.625458 13.929688 9.473816 13.872314 9.359375 13.757813 L 6.222656 10.621094 C 5.993896 10.392578 5.993896 10.021729 6.222656 9.792969 C 6.451538 9.563965 6.821991 9.563965 7.050781 9.792969 L 9.775391 12.515625 L 14.949219 7.341797 C 15.177979 7.112793 15.548584 7.112793 15.777344 7.341797 C 16.006226 7.570801 16.006226 7.941406 15.777344 8.169922 L 10.189453 13.757813 C 10.075134 13.872314 9.925293 13.929688 9.775391 13.929688 Z"/>
</svg>
