<?xml version="1.0" encoding="UTF-8"?>
<!-- Generated by Pixelmator Pro 3.2.2 -->
<svg width="16" height="16" viewBox="0 0 16 16" xmlns="http://www.w3.org/2000/svg" xmlns:xlink="http://www.w3.org/1999/xlink">
    <path id="Comment" fill="#fe3e57" fill-rule="evenodd" stroke="none" d="M 15.374939 -0.000244 L 0.625 -0.000244 C 0.279724 -0.000244 -0.000122 0.279785 -0.000122 0.624512 L -0.000122 12.999512 C -0.000122 13.344727 0.279724 13.624512 0.625 13.624512 L 6.155457 13.624512 L 7.471497 15.708496 C 7.585938 15.889648 7.785522 15.999512 7.999878 15.999512 C 8.214355 15.999512 8.413818 15.889648 8.528381 15.708496 L 9.844421 13.624512 L 15.374939 13.624512 C 15.720093 13.624512 15.999878 13.344727 15.999878 12.999512 L 15.999878 0.624512 C 15.999878 0.279785 15.720093 -0.000244 15.374939 -0.000244 Z M 14.749939 12.374756 L 9.5 12.374756 C 9.285522 12.374756 9.08606 12.484863 8.971497 12.666016 L 7.999878 14.204346 L 7.028381 12.666016 C 6.913818 12.484863 6.714355 12.374756 6.499878 12.374756 L 1.249939 12.374756 L 1.249939 1.249512 L 14.749939 1.249512 Z M 7.218689 6.812256 C 7.218689 6.380615 7.56842 6.030762 7.999878 6.030762 C 8.431335 6.030762 8.781189 6.380615 8.781189 6.812256 C 8.781189 7.243652 8.431335 7.593506 7.999878 7.593506 C 7.56842 7.593506 7.218689 7.243652 7.218689 6.812256 Z M 4.093689 6.812256 C 4.093689 6.380615 4.44342 6.030762 4.874939 6.030762 C 5.306396 6.030762 5.656128 6.380615 5.656128 6.812256 C 5.656128 7.243652 5.306396 7.593506 4.874939 7.593506 C 4.44342 7.593506 4.093689 7.243652 4.093689 6.812256 Z M 10.343628 6.812256 C 10.343628 6.380615 10.693481 6.030762 11.124939 6.030762 C 11.556396 6.030762 11.906189 6.380615 11.906189 6.812256 C 11.906189 7.243652 11.556396 7.593506 11.124939 7.593506 C 10.693481 7.593506 10.343628 7.243652 10.343628 6.812256 Z"/>
</svg>
