<?xml version="1.0" encoding="UTF-8"?>
<!-- Generated by Pixelmator Pro 3.2.2 -->
<svg width="18" height="22" viewBox="0 0 18 22" xmlns="http://www.w3.org/2000/svg" xmlns:xlink="http://www.w3.org/1999/xlink">
    <path id="Shape-1" fill="#fe3e57" fill-rule="evenodd" stroke="none" d="M 1.800781 21.003906 C 1.523835 21.003906 1.263885 20.937866 1.029297 20.828125 L 6.847656 15.142578 L 11.150391 15.142578 L 16.970703 20.828125 C 16.735992 20.937866 16.476257 21.003906 16.199219 21.003906 L 1.800781 21.003906 Z M 0.179688 20 C 0.067444 19.77063 0 19.516846 0 19.246094 L 0 8.9375 C 2.219474 11.106071 3.617288 12.470955 5.751953 14.556641 L 0.179688 20 Z M 17.818359 20 L 12.248047 14.556641 C 14.406181 12.448128 15.86805 11.018547 17.998047 8.9375 L 17.998047 19.246094 C 17.998047 19.516846 17.930603 19.77063 17.818359 20 Z M 6.847656 13.970703 L 3.599609 10.796875 L 3.599609 1.638672 C 3.599609 1.284546 3.893433 0.996094 4.255859 0.996094 L 13.630859 0.996094 C 14.05542 0.996094 14.398438 1.333252 14.398438 1.748047 L 14.398438 10.796875 L 11.150391 13.970703 L 6.847656 13.970703 Z M 9.056641 11.626953 C 9.682571 11.617543 10.314347 11.473572 10.916016 11.203125 C 11.638579 10.879028 11.129333 9.812012 10.414063 10.136719 C 9.379304 10.600952 8.277282 10.548583 7.386719 9.992188 C 6.518464 9.448365 6 8.526366 6 7.523438 C 6 5.907351 7.34543 4.591797 9 4.591797 C 10.65457 4.591797 12 5.907351 12 7.523438 C 12 8.298217 10.798828 8.298217 10.798828 7.523438 C 10.798828 6.553712 9.992431 5.763672 9 5.763672 C 8.007447 5.763672 7.199219 6.553712 7.199219 7.523438 C 7.199219 8.493041 8.007447 9.28125 9 9.28125 C 9.462341 9.28125 9.880035 9.105347 10.199219 8.824219 C 11.3656 9.853271 13.199219 9.030149 13.199219 7.523438 C 13.199219 5.26111 11.315489 3.419922 9 3.419922 C 6.684512 3.419922 4.800781 5.26111 4.800781 7.523438 C 4.800781 8.928222 5.524293 10.220216 6.738281 10.980469 C 7.454692 11.428848 8.251873 11.639051 9.056641 11.626953 Z M 2.400391 9.625 L 0.599609 7.867188 L 2.400391 6.107422 L 2.400391 9.625 Z M 15.599609 9.625 L 15.599609 6.107422 L 17.398438 7.867188 L 15.599609 9.625 Z M 9 8.109375 C 8.669495 8.109375 8.400391 7.846802 8.400391 7.523438 C 8.400391 7.199951 8.669495 6.9375 9 6.9375 C 9.315735 6.9375 9.569366 7.178711 9.591797 7.482422 C 9.525879 7.830566 9.415436 8.109375 9 8.109375 Z"/>
</svg>
