<?xml version="1.0" encoding="UTF-8"?>
<svg xmlns="http://www.w3.org/2000/svg" xmlns:xlink="http://www.w3.org/1999/xlink" width="15px" height="15px" viewBox="0 0 15 15" version="1.1">
<g id="surface1">
<path style=" stroke:none;fill-rule:nonzero;fill:rgb(0%,0%,0%);fill-opacity:1;" d="M 3.953125 7.988281 L 5.59375 7.988281 L 5.59375 14.757812 C 5.59375 14.890625 5.707031 15 5.839844 15 L 8.628906 15 C 8.757812 15 8.867188 14.890625 8.867188 14.757812 L 8.867188 8.023438 L 10.761719 8.023438 C 10.882812 8.023438 10.984375 7.929688 11 7.808594 L 11.289062 5.3125 C 11.292969 5.242188 11.273438 5.175781 11.226562 5.125 C 11.179688 5.074219 11.113281 5.042969 11.046875 5.042969 L 8.867188 5.042969 L 8.867188 3.480469 C 8.867188 3.011719 9.121094 2.773438 9.625 2.773438 C 9.691406 2.773438 11.046875 2.773438 11.046875 2.773438 C 11.179688 2.773438 11.289062 2.664062 11.289062 2.53125 L 11.289062 0.242188 C 11.289062 0.113281 11.179688 0 11.046875 0 L 9.085938 0 C 9.070312 0 9.039062 0 8.992188 0 C 8.652344 0 7.46875 0.0703125 6.539062 0.929688 C 5.503906 1.878906 5.644531 3.023438 5.679688 3.21875 L 5.679688 5.042969 L 3.953125 5.042969 C 3.820312 5.042969 3.710938 5.152344 3.710938 5.289062 L 3.710938 7.75 C 3.710938 7.882812 3.820312 7.988281 3.953125 7.988281 Z M 3.953125 7.988281 "/>
</g>
</svg>
