<?xml version="1.0" encoding="UTF-8"?>
<svg xmlns="http://www.w3.org/2000/svg" xmlns:xlink="http://www.w3.org/1999/xlink" width="16px" height="16px" viewBox="0 0 16 16" version="1.1">
<g id="surface1">
<path style=" stroke:none;fill-rule:nonzero;fill:rgb(0%,0%,0%);fill-opacity:1;" d="M 7.992188 9.265625 L 7.992188 6.785156 L 14.234375 6.785156 C 14.328125 7.207031 14.398438 7.601562 14.398438 8.152344 C 14.398438 11.960938 11.847656 14.667969 8 14.667969 C 4.320312 14.667969 1.332031 11.679688 1.332031 8 C 1.332031 4.320312 4.320312 1.332031 8 1.332031 C 9.800781 1.332031 11.308594 1.992188 12.460938 3.074219 L 10.566406 4.914062 C 10.085938 4.460938 9.246094 3.925781 8 3.925781 C 5.792969 3.925781 3.992188 5.761719 3.992188 8.007812 C 3.992188 10.253906 5.792969 12.085938 8 12.085938 C 10.554688 12.085938 11.492188 10.320312 11.667969 9.273438 L 7.992188 9.273438 Z M 7.992188 9.265625 "/>
</g>
</svg>
