<?xml version="1.0" encoding="UTF-8"?>
<!-- Generated by Pixelmator Pro 2.4.7 -->
<svg width="21" height="21" viewBox="0 0 21 21" xmlns="http://www.w3.org/2000/svg" xmlns:xlink="http://www.w3.org/1999/xlink">
    <path id="hearticon" fill="#29282d" fill-rule="evenodd" stroke="none" d="M 19.77832 5.588867 C 19.096924 3.169434 17.095581 1.726074 15.605347 1.217773 C 13.901978 0.623047 11.858154 1.217773 10.0271 2.829102 C 8.196045 1.259766 6.152222 0.70752 4.448975 1.259766 C 2.958618 1.811523 0.957397 3.253906 0.276001 5.630859 C -0.192383 7.201172 -0.234985 9.747559 2.234741 12.845703 C 3.341919 14.246094 5.045166 16.241211 6.450317 17.811035 C 9.133057 20.825195 9.558716 20.993652 9.941895 20.993652 C 9.984619 20.993652 9.984619 20.993652 10.0271 20.993652 L 10.069702 20.993652 L 10.112305 20.993652 C 10.495605 20.993652 10.878784 20.825195 13.561401 17.769043 C 14.966675 16.155762 16.669922 14.160645 17.776978 12.802734 C 20.246704 9.705566 20.246704 7.158691 19.77832 5.588867 Z M 16.499634 11.78418 C 14.540771 14.246094 11.177002 18.108398 10.0271 19.169434 C 8.877441 18.108398 5.51355 14.246094 3.554688 11.78418 C 1.936646 9.790527 1.340576 7.837891 1.851563 6.097656 C 2.362427 4.31543 3.852783 3.253906 4.959961 2.872559 C 6.194824 2.405273 7.855469 3.041992 9.388428 4.527832 C 9.686523 4.824219 10.112305 4.866699 10.452881 4.653809 C 10.538086 4.612305 10.623291 4.569824 10.665771 4.484375 C 12.19873 3.041992 13.859619 2.405273 15.09436 2.829102 C 16.201416 3.253906 17.691772 4.31543 18.202759 6.097656 C 18.713623 7.794922 18.117554 9.790527 16.499634 11.78418 Z"/>
</svg>
