<?xml version="1.0" encoding="UTF-8"?>
<!-- Generated by Pixelmator Pro 2.4.7 -->
<svg width="16" height="17" viewBox="0 0 16 17" xmlns="http://www.w3.org/2000/svg" xmlns:xlink="http://www.w3.org/1999/xlink">
    <path id="homeicon" fill="#727272" fill-rule="evenodd" stroke="none" d="M 7.99884 0.999146 L 0.228394 7.857178 C -0.040405 8.094849 -0.069092 8.508301 0.164307 8.781738 L 0.164307 8.781738 C 0.397827 9.054688 0.804871 9.08374 1.073547 8.84668 L 1.359985 8.59375 L 1.359985 15.033691 C 1.359985 16.119263 2.225769 16.999023 3.293579 16.999023 L 6.903198 16.999023 L 6.903198 11.725342 C 6.903198 11.092529 7.408203 10.579346 8.031128 10.579346 L 8.031128 10.579346 C 8.654114 10.579346 9.159058 11.092529 9.159058 11.725342 L 9.159058 16.999023 L 12.704102 16.999023 C 13.772034 16.999023 14.637817 16.119263 14.637817 15.033691 L 14.637817 8.59375 L 14.924133 8.84668 C 15.192932 9.083984 15.600037 9.054688 15.833496 8.781738 L 15.833496 8.781738 C 16.066833 8.508301 16.038208 8.094849 15.769409 7.8573 Z M 13.348633 15.033691 C 13.348633 15.39563 13.06012 15.689209 12.704102 15.689209 L 10.448242 15.689209 L 10.448242 11.725342 C 10.448242 10.368896 9.366089 9.269043 8.031128 9.269043 L 8.031128 9.269043 C 6.696167 9.269043 5.614014 10.368896 5.614014 11.725342 L 5.614014 15.689209 L 3.293579 15.689209 C 2.937683 15.689209 2.649048 15.39563 2.649048 15.033691 L 2.649048 7.455811 L 7.99884 2.734131 L 13.348633 7.455811 Z"/>
</svg>
