<?xml version="1.0" encoding="UTF-8"?>
<svg xmlns="http://www.w3.org/2000/svg" xmlns:xlink="http://www.w3.org/1999/xlink" width="15px" height="15px" viewBox="0 0 15 15" version="1.1">
<g id="surface1">
<path style=" stroke:none;fill-rule:nonzero;fill:rgb(0%,0%,0%);fill-opacity:1;" d="M 3.492188 4.824219 L 0.480469 4.824219 C 0.347656 4.824219 0.238281 4.933594 0.238281 5.066406 L 0.238281 14.742188 C 0.238281 14.875 0.347656 14.984375 0.480469 14.984375 L 3.492188 14.984375 C 3.625 14.984375 3.734375 14.875 3.734375 14.742188 L 3.734375 5.066406 C 3.734375 4.933594 3.625 4.824219 3.492188 4.824219 Z M 3.492188 4.824219 "/>
<path style=" stroke:none;fill-rule:nonzero;fill:rgb(0%,0%,0%);fill-opacity:1;" d="M 1.988281 0.015625 C 0.890625 0.015625 0 0.90625 0 2 C 0 3.097656 0.890625 3.988281 1.988281 3.988281 C 3.082031 3.988281 3.972656 3.097656 3.972656 2 C 3.972656 0.90625 3.082031 0.015625 1.988281 0.015625 Z M 1.988281 0.015625 "/>
<path style=" stroke:none;fill-rule:nonzero;fill:rgb(0%,0%,0%);fill-opacity:1;" d="M 11.152344 4.585938 C 9.941406 4.585938 9.046875 5.105469 8.503906 5.695312 L 8.503906 5.066406 C 8.503906 4.933594 8.398438 4.824219 8.261719 4.824219 L 5.378906 4.824219 C 5.246094 4.824219 5.136719 4.933594 5.136719 5.066406 L 5.136719 14.742188 C 5.136719 14.875 5.246094 14.984375 5.378906 14.984375 L 8.382812 14.984375 C 8.519531 14.984375 8.625 14.875 8.625 14.742188 L 8.625 9.957031 C 8.625 8.34375 9.0625 7.714844 10.1875 7.714844 C 11.414062 7.714844 11.511719 8.722656 11.511719 10.039062 L 11.511719 14.742188 C 11.511719 14.875 11.617188 14.984375 11.753906 14.984375 L 14.757812 14.984375 C 14.890625 14.984375 15 14.875 15 14.742188 L 15 9.433594 C 15 7.035156 14.542969 4.585938 11.152344 4.585938 Z M 11.152344 4.585938 "/>
</g>
</svg>
