<?xml version="1.0" encoding="UTF-8"?>
<!-- Generated by Pixelmator Pro 3.2.2 -->
<svg width="14" height="20" viewBox="0 0 14 20" xmlns="http://www.w3.org/2000/svg" xmlns:xlink="http://www.w3.org/1999/xlink">
    <path id="Location-icon" fill="#fe3e57" fill-rule="evenodd" stroke="none" d="M 6.997375 0.004517 C 3.139099 0.004517 0.000122 3.251465 0.000122 7.242432 C 0.000122 12.195313 6.261963 19.466431 6.528625 19.77356 C 6.779022 20.062012 7.216187 20.061523 7.466125 19.77356 C 7.732758 19.466431 13.994507 12.195313 13.994507 7.242432 C 13.994507 3.251465 10.855621 0.004517 6.997375 0.004517 Z M 6.997375 10.883911 C 5.056213 10.883911 3.476929 9.250366 3.476929 7.242432 C 3.476929 5.234375 5.056213 3.60083 6.997375 3.60083 C 8.938507 3.60083 10.517792 5.234375 10.517792 7.242432 C 10.517792 9.250366 8.938507 10.883911 6.997375 10.883911 Z"/>
</svg>
