<?xml version="1.0" encoding="UTF-8"?>
<svg xmlns="http://www.w3.org/2000/svg" xmlns:xlink="http://www.w3.org/1999/xlink" width="28px" height="20px" viewBox="0 0 28 20" version="1.1">
<g id="surface1">
<path style=" stroke:none;fill-rule:nonzero;fill:rgb(100%,37.254902%,0%);fill-opacity:1;" d="M 11.070312 4.757812 L 16.84375 4.757812 L 16.84375 15.242188 L 11.070312 15.242188 Z M 11.070312 4.757812 "/>
<path style=" stroke:none;fill-rule:nonzero;fill:rgb(92.156863%,0%,10.588235%);fill-opacity:1;" d="M 11.4375 10 C 11.433594 7.953125 12.363281 6.023438 13.957031 4.757812 C 11.25 2.609375 7.367188 2.921875 5.035156 5.476562 C 2.699219 8.03125 2.699219 11.96875 5.035156 14.523438 C 7.367188 17.078125 11.25 17.390625 13.957031 15.242188 C 12.363281 13.976562 11.433594 12.046875 11.4375 10 Z M 11.4375 10 "/>
<path style=" stroke:none;fill-rule:nonzero;fill:rgb(96.862745%,61.960784%,10.588235%);fill-opacity:1;" d="M 24.628906 10 C 24.628906 12.550781 23.1875 14.878906 20.917969 15.996094 C 18.644531 17.113281 15.941406 16.820312 13.957031 15.242188 C 15.546875 13.976562 16.476562 12.046875 16.476562 10 C 16.476562 7.953125 15.546875 6.023438 13.957031 4.757812 C 15.941406 3.179688 18.644531 2.886719 20.917969 4.003906 C 23.1875 5.121094 24.628906 7.449219 24.628906 10 Z M 24.628906 10 "/>
<path style=" stroke:none;fill-rule:nonzero;fill:rgb(96.862745%,61.960784%,10.588235%);fill-opacity:1;" d="M 24 14.132812 L 24 13.917969 L 24.085938 13.917969 L 24.085938 13.871094 L 23.867188 13.871094 L 23.867188 13.917969 L 23.953125 13.917969 L 23.953125 14.132812 Z M 24.421875 14.132812 L 24.421875 13.871094 L 24.355469 13.871094 L 24.28125 14.050781 L 24.203125 13.871094 L 24.136719 13.871094 L 24.136719 14.132812 L 24.183594 14.132812 L 24.183594 13.9375 L 24.253906 14.105469 L 24.304688 14.105469 L 24.375 13.933594 L 24.375 14.132812 Z M 24.421875 14.132812 "/>
</g>
</svg>
