<?xml version="1.0" encoding="UTF-8"?>
<svg xmlns="http://www.w3.org/2000/svg" xmlns:xlink="http://www.w3.org/1999/xlink" width="20px" height="20px" viewBox="0 0 20 20" version="1.1">
<g id="surface1">
<path style=" stroke:none;fill-rule:nonzero;fill:rgb(100%,100%,100%);fill-opacity:1;" d="M 18.589844 3.589844 L 1.410156 3.589844 C 0.632812 3.589844 0 4.222656 0 5 L 0 15.027344 C 0 15.804688 0.632812 16.4375 1.410156 16.4375 L 18.589844 16.4375 C 19.367188 16.4375 20 15.804688 20 15.027344 L 20 5 C 20 4.222656 19.367188 3.589844 18.589844 3.589844 Z M 18.589844 3.589844 "/>
<path style=" stroke:none;fill-rule:nonzero;fill:rgb(0%,18.823529%,52.941176%);fill-opacity:1;" d="M 4.316406 7.945312 C 4.101562 7.796875 3.820312 7.722656 3.472656 7.722656 L 2.132812 7.722656 C 2.027344 7.722656 1.96875 7.777344 1.957031 7.882812 L 1.410156 11.304688 C 1.40625 11.339844 1.414062 11.367188 1.4375 11.398438 C 1.457031 11.425781 1.484375 11.4375 1.519531 11.4375 L 2.15625 11.4375 C 2.269531 11.4375 2.332031 11.386719 2.34375 11.28125 L 2.492188 10.355469 C 2.5 10.3125 2.519531 10.277344 2.550781 10.246094 C 2.585938 10.21875 2.628906 10.203125 2.675781 10.191406 C 2.726562 10.183594 2.773438 10.179688 2.820312 10.179688 C 2.863281 10.179688 2.917969 10.183594 2.980469 10.1875 C 3.039062 10.195312 3.078125 10.195312 3.097656 10.195312 C 3.578125 10.195312 3.957031 10.0625 4.230469 9.789062 C 4.503906 9.519531 4.640625 9.144531 4.640625 8.660156 C 4.640625 8.332031 4.53125 8.09375 4.316406 7.945312 Z M 3.625 8.972656 C 3.597656 9.167969 3.523438 9.296875 3.40625 9.359375 C 3.289062 9.421875 3.121094 9.449219 2.902344 9.449219 L 2.628906 9.460938 L 2.769531 8.5625 C 2.78125 8.5 2.816406 8.46875 2.878906 8.46875 L 3.039062 8.46875 C 3.261719 8.46875 3.425781 8.5 3.523438 8.566406 C 3.625 8.628906 3.660156 8.765625 3.625 8.972656 Z M 3.625 8.972656 "/>
<path style=" stroke:none;fill-rule:nonzero;fill:rgb(0%,61.176471%,87.058824%);fill-opacity:1;" d="M 18.480469 7.722656 L 17.859375 7.722656 C 17.800781 7.722656 17.761719 7.753906 17.753906 7.816406 L 17.207031 11.304688 L 17.199219 11.320312 C 17.199219 11.347656 17.210938 11.375 17.230469 11.402344 C 17.253906 11.425781 17.28125 11.4375 17.316406 11.4375 L 17.871094 11.4375 C 17.976562 11.4375 18.035156 11.386719 18.046875 11.28125 L 18.589844 7.847656 L 18.589844 7.839844 C 18.589844 7.761719 18.554688 7.722656 18.480469 7.722656 Z M 18.480469 7.722656 "/>
<path style=" stroke:none;fill-rule:nonzero;fill:rgb(0%,18.823529%,52.941176%);fill-opacity:1;" d="M 10.980469 9.074219 C 10.980469 9.046875 10.972656 9.019531 10.949219 8.992188 C 10.925781 8.96875 10.902344 8.957031 10.875 8.957031 L 10.226562 8.957031 C 10.164062 8.957031 10.117188 8.984375 10.078125 9.039062 L 9.1875 10.347656 L 8.816406 9.089844 C 8.789062 9 8.726562 8.957031 8.632812 8.957031 L 8.003906 8.957031 C 7.976562 8.957031 7.949219 8.96875 7.929688 8.992188 C 7.90625 9.019531 7.894531 9.046875 7.894531 9.074219 C 7.894531 9.085938 7.949219 9.25 8.058594 9.566406 C 8.167969 9.886719 8.285156 10.230469 8.410156 10.601562 C 8.535156 10.96875 8.601562 11.164062 8.609375 11.1875 C 8.148438 11.8125 7.921875 12.148438 7.921875 12.195312 C 7.921875 12.265625 7.957031 12.304688 8.03125 12.304688 L 8.675781 12.304688 C 8.738281 12.304688 8.789062 12.273438 8.828125 12.21875 L 10.964844 9.132812 C 10.976562 9.121094 10.980469 9.101562 10.980469 9.074219 Z M 10.980469 9.074219 "/>
<path style=" stroke:none;fill-rule:nonzero;fill:rgb(0%,61.176471%,87.058824%);fill-opacity:1;" d="M 16.996094 8.957031 L 16.359375 8.957031 C 16.28125 8.957031 16.234375 9.046875 16.21875 9.234375 C 16.070312 9.007812 15.804688 8.898438 15.421875 8.898438 C 15.015625 8.898438 14.675781 9.046875 14.390625 9.351562 C 14.109375 9.652344 13.96875 10.007812 13.96875 10.414062 C 13.96875 10.746094 14.066406 11.007812 14.257812 11.203125 C 14.449219 11.398438 14.710938 11.496094 15.035156 11.496094 C 15.195312 11.496094 15.363281 11.464844 15.527344 11.398438 C 15.695312 11.328125 15.828125 11.242188 15.921875 11.128906 C 15.921875 11.132812 15.917969 11.160156 15.90625 11.203125 C 15.894531 11.25 15.890625 11.28125 15.890625 11.304688 C 15.890625 11.394531 15.925781 11.4375 16 11.4375 L 16.578125 11.4375 C 16.683594 11.4375 16.746094 11.386719 16.761719 11.28125 L 17.105469 9.089844 C 17.113281 9.054688 17.101562 9.027344 17.082031 8.996094 C 17.058594 8.96875 17.03125 8.957031 16.996094 8.957031 Z M 15.902344 10.609375 C 15.761719 10.75 15.585938 10.816406 15.386719 10.816406 C 15.222656 10.816406 15.09375 10.773438 14.992188 10.683594 C 14.890625 10.59375 14.839844 10.472656 14.839844 10.316406 C 14.839844 10.109375 14.910156 9.933594 15.050781 9.789062 C 15.191406 9.648438 15.363281 9.578125 15.570312 9.578125 C 15.726562 9.578125 15.859375 9.621094 15.960938 9.714844 C 16.066406 9.808594 16.117188 9.933594 16.117188 10.097656 C 16.117188 10.296875 16.046875 10.46875 15.902344 10.609375 Z M 15.902344 10.609375 "/>
<path style=" stroke:none;fill-rule:nonzero;fill:rgb(0%,18.823529%,52.941176%);fill-opacity:1;" d="M 7.46875 8.957031 L 6.828125 8.957031 C 6.75 8.957031 6.703125 9.046875 6.6875 9.234375 C 6.535156 9.007812 6.269531 8.898438 5.890625 8.898438 C 5.488281 8.898438 5.144531 9.046875 4.863281 9.351562 C 4.582031 9.652344 4.4375 10.007812 4.4375 10.414062 C 4.4375 10.746094 4.535156 11.007812 4.726562 11.203125 C 4.921875 11.398438 5.179688 11.496094 5.503906 11.496094 C 5.660156 11.496094 5.824219 11.464844 5.992188 11.398438 C 6.160156 11.328125 6.292969 11.242188 6.394531 11.128906 C 6.371094 11.195312 6.359375 11.253906 6.359375 11.304688 C 6.359375 11.394531 6.394531 11.4375 6.46875 11.4375 L 7.046875 11.4375 C 7.152344 11.4375 7.214844 11.386719 7.234375 11.28125 L 7.578125 9.089844 C 7.582031 9.054688 7.574219 9.027344 7.550781 8.996094 C 7.527344 8.96875 7.5 8.957031 7.46875 8.957031 Z M 6.371094 10.613281 C 6.230469 10.75 6.054688 10.816406 5.847656 10.816406 C 5.6875 10.816406 5.554688 10.773438 5.457031 10.683594 C 5.359375 10.59375 5.3125 10.472656 5.3125 10.316406 C 5.3125 10.109375 5.382812 9.933594 5.519531 9.789062 C 5.660156 9.648438 5.835938 9.578125 6.042969 9.578125 C 6.199219 9.578125 6.328125 9.621094 6.429688 9.714844 C 6.535156 9.808594 6.585938 9.933594 6.585938 10.097656 C 6.585938 10.304688 6.515625 10.476562 6.371094 10.613281 Z M 6.371094 10.613281 "/>
<path style=" stroke:none;fill-rule:nonzero;fill:rgb(0%,61.176471%,87.058824%);fill-opacity:1;" d="M 13.847656 7.945312 C 13.632812 7.796875 13.351562 7.722656 13.003906 7.722656 L 11.671875 7.722656 C 11.558594 7.722656 11.496094 7.777344 11.484375 7.882812 L 10.941406 11.304688 C 10.933594 11.339844 10.941406 11.367188 10.964844 11.398438 C 10.988281 11.425781 11.015625 11.4375 11.050781 11.4375 L 11.738281 11.4375 C 11.804688 11.4375 11.847656 11.402344 11.871094 11.328125 L 12.023438 10.355469 C 12.027344 10.3125 12.046875 10.277344 12.082031 10.246094 C 12.113281 10.21875 12.15625 10.203125 12.207031 10.191406 C 12.257812 10.183594 12.304688 10.179688 12.351562 10.179688 C 12.394531 10.179688 12.449219 10.183594 12.507812 10.1875 C 12.570312 10.195312 12.609375 10.195312 12.625 10.195312 C 13.109375 10.195312 13.484375 10.0625 13.757812 9.789062 C 14.03125 9.519531 14.171875 9.144531 14.171875 8.660156 C 14.171875 8.332031 14.0625 8.09375 13.847656 7.945312 Z M 12.988281 9.324219 C 12.863281 9.410156 12.679688 9.449219 12.433594 9.449219 L 12.164062 9.460938 L 12.308594 8.5625 C 12.320312 8.5 12.355469 8.46875 12.417969 8.46875 L 12.566406 8.46875 C 12.691406 8.46875 12.789062 8.476562 12.863281 8.484375 C 12.933594 8.496094 13.003906 8.53125 13.070312 8.589844 C 13.136719 8.648438 13.171875 8.734375 13.171875 8.847656 C 13.171875 9.082031 13.109375 9.242188 12.988281 9.324219 Z M 12.988281 9.324219 "/>
</g>
</svg>
