<?xml version="1.0" encoding="UTF-8"?>
<svg xmlns="http://www.w3.org/2000/svg" xmlns:xlink="http://www.w3.org/1999/xlink" width="16px" height="16px" viewBox="0 0 16 16" version="1.1">
<g id="surface1">
<path style=" stroke:none;fill-rule:nonzero;fill:rgb(0%,0%,0%);fill-opacity:1;" d="M 6.894531 10.582031 C 6.472656 12.785156 5.960938 14.898438 4.4375 16 C 3.96875 12.671875 5.128906 10.171875 5.667969 7.515625 C 4.75 5.972656 5.777344 2.867188 7.710938 3.632812 C 10.089844 4.574219 5.648438 9.371094 8.628906 9.96875 C 11.742188 10.59375 13.011719 4.570312 11.082031 2.609375 C 8.296875 -0.21875 2.964844 2.542969 3.621094 6.597656 C 3.78125 7.585938 4.804688 7.886719 4.03125 9.253906 C 2.246094 8.859375 1.714844 7.449219 1.78125 5.574219 C 1.894531 2.5 4.542969 0.351562 7.199219 0.0546875 C 10.558594 -0.324219 13.714844 1.289062 14.152344 4.449219 C 14.640625 8.019531 12.632812 11.882812 9.039062 11.605469 C 8.066406 11.527344 7.65625 11.046875 6.894531 10.582031 Z M 6.894531 10.582031 "/>
</g>
</svg>
