<?xml version="1.0" encoding="UTF-8"?>
<!-- Generated by Pixelmator Pro 3.2.2 -->
<svg width="15" height="15" viewBox="0 0 15 15" xmlns="http://www.w3.org/2000/svg" xmlns:xlink="http://www.w3.org/1999/xlink">
    <path id="searchicon" fill="#ffffff" fill-rule="evenodd" stroke="none" d="M 11.007629 9.681396 C 11.745605 8.673584 12.187256 7.435303 12.187256 6.093262 C 12.187256 2.73291 9.453491 -0.000732 6.093506 -0.000732 C 2.733521 -0.000732 -0.000244 2.73291 -0.000244 6.093262 C -0.000244 9.453125 2.733521 12.186768 6.093506 12.186768 C 7.435669 12.186768 8.67395 11.745117 9.681946 11.007324 L 13.674072 14.999512 L 14.999756 13.67334 L 11.007629 9.681396 Z M 6.093506 10.311523 C 3.767151 10.311523 1.874756 8.419434 1.874756 6.093262 C 1.874756 3.766602 3.767151 1.874023 6.093506 1.874023 C 8.419861 1.874023 10.312256 3.766602 10.312256 6.093262 C 10.312256 8.419434 8.419861 10.311523 6.093506 10.311523 Z"/>
</svg>
