<?xml version="1.0" encoding="UTF-8"?>
<!-- Generated by Pixelmator Pro 2.4.7 -->
<svg width="21" height="21" viewBox="0 0 21 21" xmlns="http://www.w3.org/2000/svg" xmlns:xlink="http://www.w3.org/1999/xlink">
    <path id="search" fill="#29282d" fill-rule="evenodd" stroke="none" d="M 19.891968 19.696777 L 14.082153 13.886719 C 15.184082 12.525879 15.847412 10.796387 15.847412 8.913574 C 15.847412 4.547852 12.295898 0.996582 7.930786 0.996582 C 3.56543 0.996582 0.014038 4.547852 0.014038 8.913574 C 0.014038 13.27832 3.56543 16.830078 7.930786 16.830078 C 9.813721 16.830078 11.543213 16.166504 12.903809 15.064941 L 18.713623 20.874512 C 18.876343 21.038086 19.140137 21.038086 19.302979 20.874512 L 19.891968 20.285645 C 20.05481 20.123047 20.05481 19.859375 19.891968 19.696777 Z M 7.930786 15.163574 C 4.484253 15.163574 1.680786 12.360352 1.680786 8.913574 C 1.680786 5.467285 4.484253 2.663086 7.930786 2.663086 C 11.377197 2.663086 14.180786 5.467285 14.180786 8.913574 C 14.180786 12.360352 11.377197 15.163574 7.930786 15.163574 Z"/>
</svg>
