<?xml version="1.0" encoding="UTF-8"?>
<svg xmlns="http://www.w3.org/2000/svg" xmlns:xlink="http://www.w3.org/1999/xlink" width="18px" height="18px" viewBox="0 0 18 18" version="1.1">
<g id="surface1">
<path style=" stroke:none;fill-rule:evenodd;fill:rgb(45.882353%,54.901961%,63.921569%);fill-opacity:1;" d="M 5.101562 17.113281 C 4.339844 17.445312 3.457031 17.101562 3.121094 16.34375 C 3.019531 16.109375 2.976562 15.847656 3.003906 15.589844 L 3.433594 11.347656 L 0.59375 8.171875 C 0.0390625 7.550781 0.09375 6.605469 0.710938 6.050781 C 0.90625 5.878906 1.140625 5.761719 1.394531 5.703125 L 5.558594 4.804688 L 7.703125 1.121094 C 8.121094 0.402344 9.039062 0.160156 9.753906 0.578125 C 9.980469 0.710938 10.164062 0.894531 10.296875 1.121094 L 12.441406 4.804688 L 16.605469 5.703125 C 17.417969 5.878906 17.929688 6.679688 17.753906 7.488281 C 17.699219 7.742188 17.582031 7.976562 17.40625 8.171875 L 14.566406 11.347656 L 14.996094 15.589844 C 15.082031 16.414062 14.480469 17.148438 13.65625 17.230469 C 13.398438 17.257812 13.136719 17.21875 12.898438 17.113281 L 9 15.394531 Z M 5.101562 17.113281 "/>
</g>
</svg>
