<?xml version="1.0" encoding="UTF-8"?>
<!-- Generated by Pixelmator Pro 2.4.7 -->
<svg width="20" height="21" viewBox="0 0 20 21" xmlns="http://www.w3.org/2000/svg" xmlns:xlink="http://www.w3.org/1999/xlink">
    <path id="Shape-16" fill="#8d8d8d" fill-rule="evenodd" stroke="none" d="M 10 21 C 4.486273 21 0 16.513178 0 11 C 0 5.485846 4.486273 0.998047 10 0.998047 C 12.252012 0.998047 14.458254 1.767092 16.210938 3.160156 C 16.571411 3.445801 16.630432 3.969727 16.34375 4.330078 C 16.05719 4.690918 15.53302 4.75 15.173828 4.462891 C 13.6933 3.287111 11.904112 2.666016 10 2.666016 C 5.404973 2.666016 1.666016 6.404302 1.666016 11 C 1.666016 15.594234 5.404973 19.332031 10 19.332031 C 14.595027 19.332031 18.333984 15.594234 18.333984 11 C 18.333984 9.72461 18.05542 8.505858 17.507813 7.375 C 17.307434 6.960449 17.480286 6.461914 17.894531 6.261719 C 18.307312 6.061523 18.807739 6.233887 19.007813 6.648438 C 19.66571 8.007323 20 9.471682 20 11 C 20 16.513178 15.513666 21 10 21 Z M 10 11.832031 C 9.539978 11.832031 9.166016 11.458984 9.166016 11 L 9.166016 5.166016 C 9.166016 4.706055 9.539978 4.332031 10 4.332031 C 10.459961 4.332031 10.833984 4.706055 10.833984 5.166016 L 10.833984 10.166016 L 14.166016 10.166016 C 14.626099 10.166016 15 10.539551 15 11 C 15 11.458984 14.626099 11.832031 14.166016 11.832031 L 10 11.832031 Z"/>
</svg>
