<?xml version="1.0" encoding="UTF-8"?>
<svg xmlns="http://www.w3.org/2000/svg" xmlns:xlink="http://www.w3.org/1999/xlink" width="15px" height="15px" viewBox="0 0 15 15" version="1.1">
<g id="surface1">
<path style=" stroke:none;fill-rule:nonzero;fill:rgb(0%,0%,0%);fill-opacity:1;" d="M 14.660156 2.777344 C 14.425781 2.882812 14.183594 2.96875 13.933594 3.042969 C 14.226562 2.710938 14.449219 2.320312 14.585938 1.894531 C 14.617188 1.796875 14.585938 1.691406 14.507812 1.628906 C 14.429688 1.566406 14.320312 1.558594 14.234375 1.609375 C 13.707031 1.921875 13.140625 2.148438 12.546875 2.277344 C 11.945312 1.691406 11.132812 1.359375 10.292969 1.359375 C 8.515625 1.359375 7.070312 2.804688 7.070312 4.578125 C 7.070312 4.71875 7.082031 4.859375 7.097656 4.996094 C 4.894531 4.800781 2.847656 3.71875 1.441406 1.992188 C 1.390625 1.933594 1.3125 1.898438 1.234375 1.90625 C 1.15625 1.910156 1.082031 1.957031 1.042969 2.023438 C 0.757812 2.515625 0.605469 3.074219 0.605469 3.644531 C 0.605469 4.417969 0.882812 5.15625 1.375 5.730469 C 1.226562 5.679688 1.082031 5.613281 0.941406 5.539062 C 0.867188 5.496094 0.777344 5.5 0.703125 5.539062 C 0.632812 5.582031 0.585938 5.660156 0.582031 5.746094 C 0.582031 5.757812 0.582031 5.773438 0.582031 5.789062 C 0.582031 6.945312 1.207031 7.988281 2.160156 8.558594 C 2.078125 8.546875 1.996094 8.535156 1.914062 8.519531 C 1.832031 8.503906 1.746094 8.535156 1.6875 8.597656 C 1.632812 8.664062 1.613281 8.75 1.636719 8.832031 C 1.992188 9.933594 2.898438 10.742188 3.996094 10.992188 C 3.085938 11.5625 2.046875 11.859375 0.953125 11.859375 C 0.722656 11.859375 0.496094 11.847656 0.269531 11.820312 C 0.160156 11.808594 0.0507812 11.871094 0.015625 11.980469 C -0.0234375 12.085938 0.015625 12.203125 0.109375 12.265625 C 1.515625 13.164062 3.140625 13.640625 4.808594 13.640625 C 8.085938 13.640625 10.136719 12.09375 11.28125 10.796875 C 12.703125 9.179688 13.523438 7.039062 13.523438 4.925781 C 13.523438 4.835938 13.519531 4.746094 13.519531 4.660156 C 14.082031 4.234375 14.566406 3.722656 14.960938 3.132812 C 15.019531 3.042969 15.011719 2.925781 14.941406 2.84375 C 14.875 2.761719 14.757812 2.734375 14.660156 2.777344 Z M 14.660156 2.777344 "/>
</g>
</svg>
