<?xml version="1.0" encoding="UTF-8"?>
<!-- Generated by Pixelmator Pro 2.4.7 -->
<svg width="21" height="21" viewBox="0 0 21 21" xmlns="http://www.w3.org/2000/svg" xmlns:xlink="http://www.w3.org/1999/xlink">
    <path id="user" fill="#29282d" fill-rule="evenodd" stroke="none" d="M 18.070923 13.927734 C 16.981689 12.838379 15.685303 12.032227 14.270874 11.544434 C 15.785889 10.500977 16.781128 8.754883 16.781128 6.780273 C 16.781128 3.591797 14.187622 0.998535 10.999756 0.998535 C 7.812012 0.998535 5.218628 3.591797 5.218628 6.780273 C 5.218628 8.754883 6.213867 10.500977 7.728882 11.544434 C 6.314331 12.032227 5.017944 12.838379 3.928833 13.927734 C 2.040039 15.816406 0.999878 18.327637 0.999878 20.998535 L 2.562256 20.998535 C 2.562256 16.346191 6.34729 12.561523 10.999756 12.561523 C 15.652344 12.561523 19.437256 16.346191 19.437256 20.998535 L 20.999878 20.998535 C 20.999878 18.327637 19.959595 15.816406 18.070923 13.927734 Z M 6.781006 6.780273 C 6.781006 4.453613 8.673706 2.561523 10.999756 2.561523 C 13.32605 2.561523 15.218506 4.453613 15.218506 6.780273 C 15.218506 9.106445 13.32605 10.999023 10.999756 10.999023 C 8.673706 10.999023 6.781006 9.106445 6.781006 6.780273 Z"/>
</svg>
