<?xml version="1.0" encoding="UTF-8"?>
<!-- Generated by Pixelmator Pro 2.4.7 -->
<svg width="21" height="21" viewBox="0 0 21 21" xmlns="http://www.w3.org/2000/svg" xmlns:xlink="http://www.w3.org/1999/xlink">
    <path id="Shape-15" fill="#8d8d8d" fill-rule="evenodd" stroke="none" d="M 17.070984 13.928223 C 15.981873 12.838867 14.685486 12.032227 13.270996 11.544922 C 14.78595 10.500977 15.781128 8.754883 15.781128 6.780273 C 15.781128 3.592773 13.187683 0.998535 9.999939 0.998535 C 6.812164 0.998535 4.218719 3.592773 4.218719 6.780273 C 4.218719 8.754883 5.213989 10.500977 6.728973 11.544922 C 5.314484 12.032227 4.018097 12.838867 2.928833 13.928223 C 1.0401 15.816895 -3.1e-05 18.327637 -3.1e-05 20.999023 L 1.562439 20.999023 C 1.562439 16.34668 5.347443 12.561523 9.999939 12.561523 C 14.652405 12.561523 18.437439 16.34668 18.437439 20.999023 L 20 20.999023 C 20 18.327637 18.959717 15.816895 17.070984 13.928223 Z M 5.781189 6.780273 C 5.781189 4.454102 7.673798 2.562012 9.999939 2.562012 C 12.326172 2.562012 14.218689 4.454102 14.218689 6.780273 C 14.218689 9.105957 12.326172 10.999512 9.999939 10.999512 C 7.673798 10.999512 5.781189 9.105957 5.781189 6.780273 Z"/>
</svg>
