<?xml version="1.0" encoding="UTF-8"?>
<svg xmlns="http://www.w3.org/2000/svg" xmlns:xlink="http://www.w3.org/1999/xlink" width="20px" height="20px" viewBox="0 0 20 20" version="1.1">
<defs>
<filter id="alpha" filterUnits="objectBoundingBox" x="0%" y="0%" width="100%" height="100%">
  <feColorMatrix type="matrix" in="SourceGraphic" values="0 0 0 0 1 0 0 0 0 1 0 0 0 0 1 0 0 0 1 0"/>
</filter>
<mask id="mask0">
  <g filter="url(#alpha)">
<rect x="0" y="0" width="20" height="20" style="fill:rgb(0%,0%,0%);fill-opacity:0.14902;stroke:none;"/>
  </g>
</mask>
<clipPath id="clip1">
  <rect x="0" y="0" width="20" height="20"/>
</clipPath>
<g id="surface5" clip-path="url(#clip1)">
<path style=" stroke:none;fill-rule:nonzero;fill:rgb(12.54902%,12.941176%,12.941176%);fill-opacity:1;" d="M 0.839844 15.714844 L 0.839844 4.285156 C 0.839844 3.632812 1.371094 3.105469 2.023438 3.105469 L 1.183594 3.105469 C 0.53125 3.105469 0 3.632812 0 4.285156 L 0 15.714844 C 0 16.367188 0.53125 16.894531 1.183594 16.894531 L 2.023438 16.894531 C 1.371094 16.894531 0.839844 16.367188 0.839844 15.714844 Z M 0.839844 15.714844 "/>
</g>
</defs>
<g id="surface1">
<path style=" stroke:none;fill-rule:nonzero;fill:rgb(100%,100%,100%);fill-opacity:1;" d="M 20 15.714844 C 20 16.367188 19.46875 16.894531 18.816406 16.894531 L 1.183594 16.894531 C 0.53125 16.894531 0 16.367188 0 15.714844 L 0 4.285156 C 0 3.632812 0.53125 3.105469 1.183594 3.105469 L 18.816406 3.105469 C 19.472656 3.105469 20 3.632812 20 4.285156 Z M 20 15.714844 "/>
<path style=" stroke:none;fill-rule:nonzero;fill:rgb(96.862745%,62.352941%,10.196078%);fill-opacity:1;" d="M 4.4375 10.078125 L 3.96875 7.828125 C 3.890625 7.515625 3.65625 7.421875 3.363281 7.410156 L 1.210938 7.410156 L 1.191406 7.515625 C 2.867188 7.921875 3.976562 8.902344 4.4375 10.078125 Z M 4.4375 10.078125 "/>
<path style=" stroke:none;fill-rule:nonzero;fill:rgb(1.960784%,60.784314%,74.901961%);fill-opacity:1;" d="M 9.429688 7.457031 L 8.035156 7.457031 L 7.167969 12.554688 L 8.558594 12.554688 Z M 9.429688 7.457031 "/>
<path style=" stroke:none;fill-rule:nonzero;fill:rgb(1.960784%,60.784314%,74.901961%);fill-opacity:1;" d="M 5.285156 12.550781 L 7.476562 7.460938 L 6.003906 7.460938 L 4.640625 10.9375 L 4.496094 10.414062 C 4.230469 9.78125 3.46875 8.871094 2.570312 8.300781 L 3.816406 12.550781 Z M 5.285156 12.550781 "/>
<path style=" stroke:none;fill-rule:nonzero;fill:rgb(1.960784%,60.784314%,74.901961%);fill-opacity:1;" d="M 13.394531 10.890625 C 13.402344 10.308594 13.027344 9.867188 12.226562 9.503906 C 11.742188 9.269531 11.445312 9.109375 11.449219 8.871094 C 11.449219 8.660156 11.699219 8.433594 12.242188 8.433594 C 12.699219 8.425781 13.027344 8.527344 13.285156 8.628906 L 13.410156 8.6875 L 13.597656 7.582031 C 13.324219 7.480469 12.890625 7.371094 12.351562 7.371094 C 10.980469 7.371094 10.011719 8.0625 10.003906 9.050781 C 9.996094 9.785156 10.695312 10.191406 11.222656 10.4375 C 11.761719 10.6875 11.945312 10.84375 11.941406 11.070312 C 11.9375 11.410156 11.507812 11.566406 11.109375 11.566406 C 10.554688 11.566406 10.257812 11.488281 9.800781 11.296875 L 9.625 11.21875 L 9.429688 12.359375 C 9.753906 12.5 10.351562 12.625 10.976562 12.628906 C 12.4375 12.628906 13.386719 11.949219 13.394531 10.890625 Z M 13.394531 10.890625 "/>
<path style=" stroke:none;fill-rule:nonzero;fill:rgb(1.960784%,60.784314%,74.901961%);fill-opacity:1;" d="M 15.046875 11.792969 C 15.207031 11.792969 16.625 11.792969 16.828125 11.792969 C 16.871094 11.96875 16.996094 12.558594 16.996094 12.558594 L 18.285156 12.558594 L 17.160156 7.460938 L 16.089844 7.460938 C 15.753906 7.460938 15.507812 7.554688 15.359375 7.882812 L 13.296875 12.558594 L 14.757812 12.558594 C 14.757812 12.558594 14.992188 11.929688 15.046875 11.792969 Z M 16 9.320312 C 15.992188 9.335938 16.117188 9.027344 16.1875 8.835938 L 16.28125 9.273438 C 16.28125 9.273438 16.546875 10.492188 16.601562 10.746094 L 15.449219 10.746094 C 15.5625 10.453125 16 9.320312 16 9.320312 Z M 16 9.320312 "/>
<path style=" stroke:none;fill-rule:nonzero;fill:rgb(1.960784%,60.784314%,74.901961%);fill-opacity:1;" d="M 18.816406 3.105469 L 1.183594 3.105469 C 0.53125 3.105469 0 3.632812 0 4.285156 L 0 5.511719 L 20 5.511719 L 20 4.285156 C 20 3.632812 19.472656 3.105469 18.816406 3.105469 Z M 18.816406 3.105469 "/>
<path style=" stroke:none;fill-rule:nonzero;fill:rgb(96.862745%,62.352941%,10.196078%);fill-opacity:1;" d="M 18.816406 16.894531 L 1.183594 16.894531 C 0.53125 16.894531 0 16.367188 0 15.714844 L 0 14.488281 L 20 14.488281 L 20 15.714844 C 20 16.367188 19.472656 16.894531 18.816406 16.894531 Z M 18.816406 16.894531 "/>
<use xlink:href="#surface5" mask="url(#mask0)"/>
</g>
</svg>
